<?xml version="1.0" encoding="UTF-8"?>
<svg xmlns="http://www.w3.org/2000/svg" xmlns:xlink="http://www.w3.org/1999/xlink" width="375pt" height="374.999991pt" viewBox="0 0 375 374.999991" version="1.2">
<defs>
<clipPath id="clip1">
  <path d="M 56.285156 73.917969 L 318.785156 73.917969 L 318.785156 301.167969 L 56.285156 301.167969 Z M 56.285156 73.917969 "/>
</clipPath>
<clipPath id="clip2">
  <path d="M 83 80 L 292 80 L 292 295 L 83 295 Z M 83 80 "/>
</clipPath>
<clipPath id="clip3">
  <path d="M 302.464844 100.335938 L 257.261719 313.851562 L 72.359375 274.707031 L 117.5625 61.1875 Z M 302.464844 100.335938 "/>
</clipPath>
<clipPath id="clip4">
  <path d="M 302.464844 100.335938 L 257.261719 313.851562 L 72.359375 274.707031 L 117.5625 61.1875 Z M 302.464844 100.335938 "/>
</clipPath>
<clipPath id="clip5">
  <path d="M 143 142 L 233 142 L 233 233 L 143 233 Z M 143 142 "/>
</clipPath>
<clipPath id="clip6">
  <path d="M 250.316406 179.449219 L 195.738281 250.066406 L 125.121094 195.488281 L 179.699219 124.871094 Z M 250.316406 179.449219 "/>
</clipPath>
<clipPath id="clip7">
  <path d="M 250.316406 179.449219 L 195.738281 250.066406 L 125.121094 195.488281 L 179.699219 124.871094 Z M 250.316406 179.449219 "/>
</clipPath>
</defs>
<g id="surface1">
<path style=" stroke:none;fill-rule:nonzero;fill:rgb(78.039551%,81.568909%,84.709167%);fill-opacity:1;" d="M 323.234375 267.863281 L 323.234375 106.96875 L 187.367188 29.105469 L 51.503906 106.96875 L 51.503906 267.863281 L 187.367188 345.726562 Z M 58.863281 263.625 L 58.863281 111.207031 L 187.367188 37.574219 L 315.875 111.207031 L 315.875 263.625 L 187.367188 337.257812 Z M 58.863281 263.625 "/>
<g clip-path="url(#clip1)" clip-rule="nonzero">
<path style=" stroke:none;fill-rule:nonzero;fill:rgb(78.039551%,81.568909%,84.709167%);fill-opacity:1;" d="M 248.558594 81.792969 L 309.585938 187.542969 L 248.558594 293.296875 L 126.507812 293.296875 L 65.429688 187.542969 L 126.507812 81.792969 L 248.558594 81.792969 M 253.125 73.917969 L 121.941406 73.917969 L 56.351562 187.542969 L 121.941406 301.167969 L 253.125 301.167969 L 318.714844 187.542969 Z M 253.125 73.917969 "/>
</g>
<g clip-path="url(#clip2)" clip-rule="nonzero">
<g clip-path="url(#clip3)" clip-rule="nonzero">
<g clip-path="url(#clip4)" clip-rule="nonzero">
<path style=" stroke:none;fill-rule:nonzero;fill:rgb(78.039551%,81.568909%,84.709167%);fill-opacity:1;" d="M 262.949219 255.375 L 166.394531 286.796875 L 90.855469 218.941406 L 111.875 119.664062 L 208.4375 88.199219 L 283.964844 156.097656 L 262.949219 255.375 M 268.566406 260.445312 L 291.15625 153.742188 L 210.003906 80.816406 L 106.257812 114.597656 L 83.664062 221.300781 L 164.820312 294.222656 Z M 268.566406 260.445312 "/>
</g>
</g>
</g>
<g clip-path="url(#clip5)" clip-rule="nonzero">
<g clip-path="url(#clip6)" clip-rule="nonzero">
<g clip-path="url(#clip7)" clip-rule="nonzero">
<path style=" stroke:none;fill-rule:nonzero;fill:rgb(78.039551%,81.568909%,84.709167%);fill-opacity:1;" d="M 223.027344 214.757812 C 225.925781 211.003906 228.089844 206.949219 229.644531 202.773438 C 229.8125 202.554688 229.929688 202.289062 229.890625 201.996094 C 235.933594 184.371094 230.507812 164.140625 215.007812 152.160156 L 214.125 151.476562 C 214 151.292969 213.792969 151.222656 213.683594 151.136719 C 194.21875 137.324219 167.121094 141.144531 152.410156 160.179688 C 137.359375 179.652344 140.953125 207.722656 160.429688 222.777344 C 179.902344 237.828125 207.972656 234.230469 223.027344 214.757812 Z M 220.820312 213.050781 C 214.894531 220.71875 206.742188 225.789062 197.980469 228.007812 L 195.222656 216.179688 C 195.589844 215.933594 195.945312 215.589844 196.242188 215.207031 C 196.753906 214.542969 197.058594 213.808594 197.207031 213.042969 L 205.914062 211.929688 C 206.179688 212.839844 206.78125 213.65625 207.550781 214.253906 C 209.703125 215.917969 212.738281 215.527344 214.398438 213.375 C 215.253906 212.273438 215.578125 210.9375 215.316406 209.679688 L 225.820312 204.753906 C 224.453125 207.664062 222.824219 210.457031 220.820312 213.050781 Z M 167.980469 192.480469 C 168.234375 192.148438 168.394531 191.832031 168.550781 191.511719 L 177.078125 193.253906 C 177.113281 193.546875 177.195312 193.785156 177.273438 194.023438 L 167.359375 200.8125 L 165.9375 193.984375 C 166.695312 193.691406 167.425781 193.199219 167.980469 192.480469 Z M 162.839844 191.152344 C 161.902344 190.425781 161.738281 189.15625 162.464844 188.21875 C 163.1875 187.28125 164.460938 187.117188 165.398438 187.839844 C 166.335938 188.566406 166.5 189.839844 165.773438 190.777344 C 165.046875 191.714844 163.777344 191.875 162.839844 191.152344 Z M 168.675781 187.820312 L 178.699219 182.261719 C 178.867188 182.386719 178.933594 182.527344 179.097656 182.65625 C 181.25 184.320312 184.28125 183.929688 185.945312 181.78125 C 187.480469 179.792969 187.226562 177.042969 185.46875 175.328125 L 191.746094 163.441406 C 191.84375 163.425781 191.957031 163.511719 192.054688 163.5 L 196.410156 176.5625 C 196.046875 176.808594 195.691406 177.152344 195.394531 177.535156 C 194.328125 178.917969 194.148438 180.628906 194.644531 182.15625 L 184.855469 188.777344 C 182.757812 187.160156 179.683594 187.601562 178.0625 189.699219 C 177.847656 189.972656 177.679688 190.195312 177.5625 190.457031 L 168.941406 188.730469 C 168.902344 188.4375 168.8125 188.101562 168.675781 187.820312 Z M 163.742188 184.625 L 161.457031 178.800781 C 161.863281 178.5 162.273438 178.199219 162.613281 177.757812 C 162.871094 177.429688 163.027344 177.109375 163.1875 176.792969 L 177.347656 179.453125 C 177.359375 179.550781 177.371094 179.648438 177.4375 179.789062 L 166.992188 185.550781 C 166.011719 184.878906 164.875 184.527344 163.742188 184.625 Z M 180.847656 180.394531 C 179.910156 179.667969 179.746094 178.398438 180.472656 177.460938 C 181.195312 176.523438 182.46875 176.359375 183.40625 177.085938 C 184.34375 177.808594 184.507812 179.082031 183.78125 180.019531 C 183.054688 180.957031 181.785156 181.121094 180.847656 180.394531 Z M 217.3125 184.519531 L 217.1875 184.6875 C 216.246094 185.898438 216 187.472656 216.332031 188.871094 L 208.101562 193.703125 C 207.867188 193.4375 207.636719 193.167969 207.304688 192.910156 C 206.421875 192.230469 205.28125 191.878906 204.292969 191.90625 L 201.914062 184.605469 C 202.378906 184.347656 202.777344 183.949219 203.117188 183.507812 C 204.097656 182.238281 204.386719 180.609375 203.90625 179.179688 L 207.792969 176.546875 C 209.105469 177.46875 210.773438 177.703125 212.203125 177.222656 Z M 222.328125 186.015625 C 223.265625 186.742188 223.425781 188.011719 222.703125 188.949219 C 221.976562 189.886719 220.707031 190.050781 219.769531 189.328125 C 218.832031 188.601562 218.667969 187.328125 219.390625 186.390625 C 220.117188 185.453125 221.390625 185.292969 222.328125 186.015625 Z M 201.617188 192.746094 C 201.207031 193.046875 200.796875 193.347656 200.457031 193.789062 C 200.160156 194.175781 199.914062 194.605469 199.769531 195.019531 L 186.808594 192.40625 C 186.800781 191.960938 186.695312 191.523438 186.535156 191.046875 L 196.269531 184.382812 C 197.152344 185.066406 198.136719 185.386719 199.183594 185.402344 Z M 205.597656 195.117188 C 206.535156 195.84375 206.699219 197.113281 205.972656 198.050781 C 205.25 198.992188 203.976562 199.152344 203.039062 198.429688 C 202.101562 197.703125 201.9375 196.433594 202.664062 195.492188 C 203.390625 194.554688 204.660156 194.394531 205.597656 195.117188 Z M 207.652344 206.488281 C 207.285156 206.734375 206.972656 207.019531 206.675781 207.40625 C 206.292969 207.902344 206.019531 208.484375 205.84375 209.054688 L 196.84375 210.207031 C 196.707031 209.925781 196.519531 209.601562 196.339844 209.378906 L 202.566406 201.324219 C 203.398438 201.613281 204.304688 201.695312 205.183594 201.582031 Z M 211.816406 208.738281 C 212.753906 209.460938 212.917969 210.734375 212.191406 211.671875 C 211.46875 212.609375 210.195312 212.773438 209.257812 212.046875 C 208.320312 211.320312 208.15625 210.050781 208.882812 209.113281 C 209.605469 208.175781 210.878906 208.011719 211.816406 208.738281 Z M 185.175781 196.34375 C 185.445312 196.109375 185.617188 195.890625 185.785156 195.667969 C 185.914062 195.503906 186.085938 195.28125 186.15625 195.074219 L 199.578125 197.777344 C 199.707031 198.40625 199.992188 199.066406 200.402344 199.5625 L 194.175781 207.617188 C 193.289062 207.28125 192.285156 207.210938 191.363281 207.378906 Z M 180.644531 194.339844 C 179.707031 193.613281 179.542969 192.34375 180.269531 191.402344 C 180.992188 190.464844 182.265625 190.304688 183.203125 191.027344 C 184.140625 191.753906 184.304688 193.023438 183.578125 193.960938 C 182.855469 194.898438 181.582031 195.0625 180.644531 194.339844 Z M 197.976562 182.175781 C 197.039062 181.453125 196.875 180.179688 197.601562 179.242188 C 198.324219 178.304688 199.597656 178.140625 200.535156 178.867188 C 201.472656 179.589844 201.632812 180.863281 200.910156 181.800781 C 200.183594 182.738281 198.914062 182.902344 197.976562 182.175781 Z M 178.71875 196.375 L 178.9375 196.546875 C 180.042969 197.398438 181.375 197.722656 182.691406 197.507812 L 188.914062 208.835938 C 188.785156 209.003906 188.644531 209.070312 188.519531 209.234375 C 187.410156 210.671875 187.242188 212.480469 187.890625 214.039062 L 171.832031 224.097656 L 167.886719 203.777344 Z M 193.660156 210.566406 C 194.597656 211.289062 194.761719 212.5625 194.035156 213.5 C 193.308594 214.4375 192.039062 214.601562 191.101562 213.875 C 190.164062 213.152344 190 211.878906 190.726562 210.941406 C 191.449219 210.003906 192.722656 209.839844 193.660156 210.566406 Z M 227.324219 200.984375 L 214.195312 207.140625 C 214.019531 206.914062 213.742188 206.699219 213.523438 206.53125 C 212.585938 205.804688 211.445312 205.453125 210.257812 205.507812 L 207.65625 200.324219 C 207.882812 200.144531 208.011719 199.980469 208.179688 199.757812 C 208.949219 198.765625 209.289062 197.527344 209.179688 196.300781 L 217.730469 191.277344 L 218.0625 191.53125 C 220.214844 193.195312 223.246094 192.808594 224.910156 190.65625 C 225.421875 189.992188 225.726562 189.257812 225.875 188.496094 L 229.59375 188.019531 C 229.5 192.355469 228.769531 196.722656 227.324219 200.984375 Z M 229.480469 185.199219 L 225.46875 185.714844 C 225.128906 185.011719 224.652344 184.375 223.988281 183.863281 C 222.722656 182.882812 221.050781 182.652344 219.609375 183.035156 L 214.484375 175.636719 L 214.527344 175.582031 C 216.191406 173.429688 215.804688 170.398438 213.652344 168.734375 C 213.375 168.523438 213 168.320312 212.683594 168.164062 L 214.183594 155.046875 C 223.625 162.785156 228.863281 173.796875 229.480469 185.199219 Z M 209.386719 174.253906 C 208.449219 173.527344 208.285156 172.257812 209.011719 171.320312 C 209.734375 170.378906 211.007812 170.21875 211.945312 170.941406 C 212.882812 171.667969 213.046875 172.9375 212.320312 173.878906 C 211.597656 174.816406 210.324219 174.976562 209.386719 174.253906 Z M 211.546875 153.097656 L 209.898438 167.773438 C 208.683594 167.980469 207.570312 168.621094 206.804688 169.613281 C 205.738281 170.992188 205.519531 172.761719 206.066406 174.332031 L 202.363281 176.84375 L 202.140625 176.671875 C 201.203125 175.949219 200.066406 175.597656 198.933594 175.691406 L 194.796875 162.800781 C 195.402344 162.472656 195.894531 162.0625 196.324219 161.511719 C 197.429688 160.078125 197.585938 158.167969 196.9375 156.609375 L 206.972656 150.355469 C 208.5625 151.144531 210.070312 152.046875 211.546875 153.097656 Z M 191.179688 160.183594 C 190.242188 159.457031 190.082031 158.1875 190.804688 157.246094 C 191.53125 156.308594 192.800781 156.148438 193.738281 156.871094 C 194.675781 157.597656 194.839844 158.867188 194.117188 159.804688 C 193.390625 160.742188 192.121094 160.90625 191.179688 160.183594 Z M 203.953125 148.902344 L 195.113281 154.410156 C 193 153.039062 190.175781 153.5 188.597656 155.542969 L 188.554688 155.597656 L 170.882812 149.164062 C 181.28125 144.597656 193.238281 144.410156 203.953125 148.902344 Z M 187.597656 158.207031 C 187.492188 159.710938 188.125 161.167969 189.296875 162.164062 L 183.046875 173.898438 C 182.433594 173.777344 181.890625 173.800781 181.304688 173.875 L 170.492188 151.945312 Z M 154.617188 161.882812 C 158.070312 157.414062 162.277344 153.792969 166.960938 151.15625 L 178.789062 175.191406 C 178.605469 175.3125 178.433594 175.535156 178.265625 175.753906 C 178.050781 176.03125 177.851562 176.402344 177.691406 176.722656 L 163.574219 174.007812 C 163.371094 172.792969 162.785156 171.722656 161.738281 170.914062 C 159.917969 169.503906 157.390625 169.582031 155.683594 170.992188 L 150.835938 167.6875 C 151.925781 165.707031 153.167969 163.757812 154.617188 161.882812 Z M 157.097656 173.496094 C 157.824219 172.558594 159.09375 172.394531 160.03125 173.121094 C 160.96875 173.84375 161.132812 175.117188 160.40625 176.054688 C 159.683594 176.992188 158.410156 177.15625 157.472656 176.429688 C 156.535156 175.703125 156.371094 174.433594 157.097656 173.496094 Z M 149.570312 170.234375 L 154.089844 173.285156 C 153.488281 175.199219 154.113281 177.359375 155.769531 178.636719 C 156.652344 179.320312 157.789062 179.671875 158.835938 179.683594 L 161.148438 185.703125 C 160.835938 185.992188 160.566406 186.222656 160.269531 186.609375 C 159.757812 187.273438 159.453125 188.007812 159.347656 188.714844 L 146.019531 190.226562 C 145.546875 183.425781 146.703125 176.566406 149.570312 170.234375 Z M 146.214844 192.933594 L 159.640625 191.414062 C 159.9375 192.167969 160.472656 192.847656 161.132812 193.359375 C 161.742188 193.828125 162.476562 194.132812 163.140625 194.292969 L 164.738281 202.488281 L 152.851562 210.574219 C 149.289062 205.265625 147.0625 199.136719 146.214844 192.933594 Z M 162.132812 220.570312 C 159.210938 218.308594 156.640625 215.707031 154.492188 212.898438 L 165.324219 205.496094 L 169.113281 224.992188 C 166.71875 223.757812 164.339844 222.273438 162.132812 220.570312 Z M 189.617188 216.253906 C 190.484375 216.835938 191.570312 217.144531 192.558594 217.117188 L 195.324219 228.59375 C 187.9375 229.9375 180.261719 229.382812 173.105469 226.667969 Z M 189.617188 216.253906 "/>
</g>
</g>
</g>
</g>
</svg>
